ffmpeg version 3.4.8-0ubuntu0.2 Copyright (c) 2000-2020 the FFmpeg developers
  built with gcc 7 (Ubuntu 7.5.0-3ubuntu1~18.04)
  configuration: --prefix=/usr --extra-version=0ubuntu0.2 --toolchain=hardened --libdir=/usr/lib/x86_64-linux-gnu --incdir=/usr/include/x86_64-linux-gnu --enable-gpl --disable-stripping --enable-avresample --enable-avisynth --enable-gnutls --enable-ladspa --enable-libass --enable-libbluray --enable-libbs2b --enable-libcaca --enable-libcdio --enable-libflite --enable-libfontconfig --enable-libfreetype --enable-libfribidi --enable-libgme --enable-libgsm --enable-libmp3lame --enable-libmysofa --enable-libopenjpeg --enable-libopenmpt --enable-libopus --enable-libpulse --enable-librubberband --enable-librsvg --enable-libshine --enable-libsnappy --enable-libsoxr --enable-libspeex --enable-libssh --enable-libtheora --enable-libtwolame --enable-libvorbis --enable-libvpx --enable-libwavpack --enable-libwebp --enable-libx265 --enable-libxml2 --enable-libxvid --enable-libzmq --enable-libzvbi --enable-omx --enable-openal --enable-opengl --enable-sdl2 --enable-libdc1394 --enable-libdrm --enable-libiec61883 --enable-chromaprint --enable-frei0r --enable-libopencv --enable-libx264 --enable-shared
  libavutil      55. 78.100 / 55. 78.100
  libavcodec     57.107.100 / 57.107.100
  libavformat    57. 83.100 / 57. 83.100
  libavdevice    57. 10.100 / 57. 10.100
  libavfilter     6.107.100 /  6.107.100
  libavresample   3.  7.  0 /  3.  7.  0
  libswscale      4.  8.100 /  4.  8.100
  libswresample   2.  9.100 /  2.  9.100
  libpostproc    54.  7.100 / 54.  7.100
Input #0, matroska,webm, from '../.././Samples/8_AVC_8bits_3840x2160_25_000fps.mkv':
  Metadata:
    encoder         : Haali Matroska Writer b0
  Duration: 00:00:20.00, start: 0.000000, bitrate: 117459 kb/s
    Stream #0:0(eng): Video: h264 (Main), yuv420p(progressive), 3840x2160 [SAR 1:1 DAR 16:9], 25 fps, 25 tbr, 20k tbn, 50 tbc (default)
Stream mapping:
  Stream #0:0 -> #0:0 (h264 (native) -> h264 (libx264))
Press [q] to stop, [?] for help
[libx264 @ 0x5583e97cb9e0] using SAR=1/1
[libx264 @ 0x5583e97cb9e0] using cpu capabilities: MMX2 SSE2Fast SSSE3 SSE4.2 AVX FMA3 BMI2 AVX2
[libx264 @ 0x5583e97cb9e0] profile High, level 5.1
[libx264 @ 0x5583e97cb9e0] 264 - core 152 r2854 e9a5903 - H.264/MPEG-4 AVC codec - Copyleft 2003-2017 - http://www.videolan.org/x264.html - options: cabac=1 ref=3 deblock=1:0:0 analyse=0x3:0x113 me=hex subme=7 psy=1 psy_rd=1.00:0.00 mixed_ref=1 me_range=16 chroma_me=1 trellis=1 8x8dct=1 cqm=0 deadzone=21,11 fast_pskip=1 chroma_qp_offset=-2 threads=6 lookahead_threads=1 sliced_threads=0 nr=0 decimate=1 interlaced=0 bluray_compat=0 constrained_intra=0 bframes=3 b_pyramid=2 b_adapt=1 b_bias=0 direct=1 weightb=1 open_gop=0 weightp=2 keyint=250 keyint_min=25 scenecut=40 intra_refresh=0 rc_lookahead=40 rc=crf mbtree=1 crf=23.0 qcomp=0.60 qpmin=0 qpmax=69 qpstep=4 ip_ratio=1.40 aq=1:1.00
Output #0, mov, to '/home/aleksandr/Pract/Samples/8_AVC_8bits_3840x2160_25_000fps.mkv_tc/output_std3.mov':
  Metadata:
    encoder         : Lavf57.83.100
    Stream #0:0(eng): Video: h264 (libx264) (avc1 / 0x31637661), yuv420p, 3840x2160 [SAR 1:1 DAR 16:9], q=-1--1, 25 fps, 12800 tbn, 25 tbc (default)
    Metadata:
      encoder         : Lavc57.107.100 libx264
    Side data:
      cpb: bitrate max/min/avg: 0/0/0 buffer size: 0 vbv_delay: -1
frame=    6 fps=0.0 q=0.0 size=       0kB time=00:00:00.00 bitrate=N/A speed=   0x    frame=   14 fps= 12 q=0.0 size=       0kB time=00:00:00.00 bitrate=N/A speed=   0x    frame=   23 fps= 14 q=0.0 size=       0kB time=00:00:00.00 bitrate=N/A speed=   0x    frame=   35 fps= 15 q=0.0 size=       0kB time=00:00:00.00 bitrate=N/A speed=   0x    frame=   44 fps= 16 q=0.0 size=       0kB time=00:00:00.00 bitrate=N/A speed=   0x    frame=   47 fps=7.9 q=0.0 size=       0kB time=00:00:00.00 bitrate=N/A speed=   0x    frame=   52 fps=6.7 q=28.0 size=    1536kB time=-00:00:00.03 bitrate=N/A speed=N/A    frame=   53 fps=5.9 q=28.0 size=    1792kB time=00:00:00.00 bitrate=188209641.0kbits/s speed=8.73e-06x    frame=   54 fps=5.5 q=28.0 size=    2048kB time=00:00:00.04 bitrate=418621.3kbits/s speed=0.0041x    frame=   57 fps=4.9 q=28.0 size=    3584kB time=00:00:00.16 bitrate=183413.2kbits/s speed=0.0137x    frame=   59 fps=4.8 q=28.0 size=    4096kB time=00:00:00.24 bitrate=139765.9kbits/s speed=0.0195x    frame=   61 fps=4.2 q=28.0 size=    5120kB time=00:00:00.32 bitrate=131041.0kbits/s speed=0.022x    frame=   63 fps=4.2 q=28.0 size=    5632kB time=00:00:00.40 bitrate=115321.6kbits/s speed=0.0264x    frame=   65 fps=3.8 q=28.0 size=    6656kB time=00:00:00.48 bitrate=113577.9kbits/s speed=0.0282x    frame=   67 fps=3.7 q=28.0 size=    7424kB time=00:00:00.56 bitrate=108587.9kbits/s speed=0.0312x    frame=   69 fps=3.5 q=28.0 size=    8448kB time=00:00:00.64 bitrate=108121.7kbits/s speed=0.0325x    frame=   71 fps=3.5 q=28.0 size=    8960kB time=00:00:00.72 bitrate=101934.2kbits/s speed=0.0353x    frame=   73 fps=3.2 q=28.0 size=    9984kB time=00:00:00.80 bitrate=102226.6kbits/s speed=0.0355x    frame=   75 fps=3.2 q=28.0 size=   10496kB time=00:00:00.88 bitrate=97699.9kbits/s speed=0.0376x    frame=   77 fps=3.1 q=28.0 size=   11776kB time=00:00:00.96 bitrate=100480.7kbits/s speed=0.0381x    frame=   79 fps=3.1 q=28.0 size=   12288kB time=00:00:01.04 bitrate=96784.6kbits/s speed=0.0404x    frame=   81 fps=2.9 q=28.0 size=   13312kB time=00:00:01.12 bitrate=97361.2kbits/s speed=0.0397x    frame=   83 fps=2.8 q=28.0 size=   14080kB time=00:00:01.20 bitrate=96113.5kbits/s speed=0.0412x    frame=   85 fps=2.9 q=28.0 size=   15104kB time=00:00:01.28 bitrate=96659.9kbits/s speed=0.0432x    frame=   86 fps=2.8 q=28.0 size=   15360kB time=00:00:01.32 bitrate=95319.7kbits/s speed=0.0437x    frame=   87 fps=2.8 q=28.0 size=   15616kB time=00:00:01.36 bitrate=94058.3kbits/s speed=0.0437x    frame=   89 fps=2.7 q=28.0 size=   16640kB time=00:00:01.44 bitrate=94658.2kbits/s speed=0.0431x    frame=   90 fps=2.6 q=28.0 size=   17152kB time=00:00:01.48 bitrate=94933.8kbits/s speed=0.0436x    frame=   92 fps=2.7 q=28.0 size=   17920kB time=00:00:01.56 bitrate=94098.5kbits/s speed=0.0451x    frame=   93 fps=2.5 q=28.0 size=   18432kB time=00:00:01.60 bitrate=94367.4kbits/s speed=0.0439x    frame=   95 fps=2.6 q=28.0 size=   18944kB time=00:00:01.68 bitrate=92370.4kbits/s speed=0.0452x    frame=   96 fps=2.5 q=28.0 size=   19712kB time=00:00:01.72 bitrate=93880.0kbits/s speed=0.0456x    frame=   97 fps=2.5 q=28.0 size=   19968kB time=00:00:01.76 bitrate=92938.0kbits/s speed=0.0447x    frame=   99 fps=2.5 q=28.0 size=   20736kB time=00:00:01.84 bitrate=92316.5kbits/s speed=0.0458x    frame=  101 fps=2.4 q=28.0 size=   21760kB time=00:00:01.92 bitrate=92839.0kbits/s speed=0.0451x    frame=  102 fps=2.4 q=28.0 size=   22016kB time=00:00:01.96 bitrate=92014.4kbits/s speed=0.0453x    frame=  105 fps=2.3 q=28.0 size=   23296kB time=00:00:02.08 bitrate=91747.1kbits/s speed=0.0459x    frame=  107 fps=2.3 q=28.0 size=   24064kB time=00:00:02.16 bitrate=91261.8kbits/s speed=0.0468x    frame=  108 fps=2.3 q=28.0 size=   24576kB time=00:00:02.20 bitrate=91509.0kbits/s speed=0.0467x    frame=  109 fps=2.2 q=28.0 size=   24832kB time=00:00:02.24 bitrate=90811.1kbits/s speed=0.0462x    frame=  110 fps=2.2 q=28.0 size=   25344kB time=00:00:02.28 bitrate=91057.6kbits/s speed=0.0461x    frame=  113 fps=2.2 q=28.0 size=   26624kB time=00:00:02.40 bitrate=90873.8kbits/s speed=0.0469x    frame=  114 fps=2.2 q=28.0 size=   26880kB time=00:00:02.44 bitrate=90243.5kbits/s speed=0.047x    frame=  117 fps=2.2 q=28.0 size=   28416kB time=00:00:02.56 bitrate=90928.5kbits/s speed=0.0471x    frame=  119 fps=2.2 q=28.0 size=   28928kB time=00:00:02.64 bitrate=89761.9kbits/s speed=0.048x    frame=  121 fps=2.1 q=28.0 size=   29952kB time=00:00:02.72 bitrate=90205.9kbits/s speed=0.0479x    frame=  122 fps=2.1 q=28.0 size=   30208kB time=00:00:02.76 bitrate=89658.4kbits/s speed=0.0481x    frame=  124 fps=2.1 q=28.0 size=   31232kB time=00:00:02.84 bitrate=90086.6kbits/s speed=0.0491x    frame=  125 fps=2.1 q=28.0 size=   31488kB time=00:00:02.88 bitrate=89563.5kbits/s speed=0.0477x    frame=  127 fps=2.1 q=28.0 size=   32256kB time=00:00:02.96 bitrate=89268.4kbits/s speed=0.0484x    frame=  129 fps=2.1 q=28.0 size=   33280kB time=00:00:03.04 bitrate=89678.6kbits/s speed=0.0484x    frame=  131 fps=2.1 q=28.0 size=   33792kB time=00:00:03.12 bitrate=88723.5kbits/s speed=0.0491x    frame=  132 fps=2.0 q=28.0 size=   34304kB time=00:00:03.16 bitrate=88927.8kbits/s speed=0.0488x    frame=  133 fps=2.0 q=28.0 size=   34816kB time=00:00:03.20 bitrate=89126.9kbits/s speed=0.0483x    frame=  134 fps=2.0 q=28.0 size=   35072kB time=00:00:03.24 bitrate=88673.8kbits/s speed=0.0483x    frame=  137 fps=2.0 q=28.0 size=   36608kB time=00:00:03.36 bitrate=89251.8kbits/s speed=0.0486x    frame=  139 fps=2.0 q=28.0 size=   37120kB time=00:00:03.44 bitrate=88395.5kbits/s speed=0.0492x    frame=  141 fps=2.0 q=28.0 size=   38400kB time=00:00:03.52 bitrate=89365.4kbits/s speed=0.0491x    frame=  142 fps=1.9 q=28.0 size=   38656kB time=00:00:03.56 bitrate=88950.4kbits/s speed=0.0487x    frame=  144 fps=2.0 q=28.0 size=   39680kB time=00:00:03.64 bitrate=89300.0kbits/s speed=0.0494x    frame=  145 fps=1.9 q=28.0 size=   40192kB time=00:00:03.68 bitrate=89469.1kbits/s speed=0.0486x    frame=  146 fps=1.9 q=28.0 size=   40448kB time=00:00:03.72 bitrate=89070.8kbits/s speed=0.0485x    frame=  151 fps=1.9 q=28.0 size=   43520kB time=00:00:03.92 bitrate=90946.2kbits/s speed=0.0495x    frame=  152 fps=1.9 q=28.0 size=   44032kB time=00:00:03.96 bitrate=91086.7kbits/s speed=0.0493x    frame=  154 fps=1.9 q=28.0 size=   45056kB time=00:00:04.04 bitrate=91359.4kbits/s speed=0.0492x    frame=  156 fps=1.9 q=28.0 size=   45824kB time=00:00:04.12 bitrate=91112.5kbits/s speed=0.0496x    frame=  158 fps=1.8 q=28.0 size=   47104kB time=00:00:04.20 bitrate=91873.6kbits/s speed=0.0491x    frame=  160 fps=1.9 q=28.0 size=   47872kB time=00:00:04.28 bitrate=91626.3kbits/s speed=0.0495x    frame=  161 fps=1.8 q=28.0 size=   48640kB time=00:00:04.32 bitrate=92234.3kbits/s speed=0.0495x    frame=  162 fps=1.8 q=28.0 size=   49152kB time=00:00:04.36 bitrate=92350.1kbits/s speed=0.0492x    frame=  163 fps=1.8 q=28.0 size=   49664kB time=00:00:04.40 bitrate=92463.8kbits/s speed=0.0489x    frame=  166 fps=1.8 q=28.0 size=   51200kB time=00:00:04.52 bitrate=92792.8kbits/s speed=0.0493x    frame=  167 fps=1.8 q=28.0 size=   51712kB time=00:00:04.56 bitrate=92898.6kbits/s speed=0.0492x    frame=  169 fps=1.8 q=28.0 size=   52736kB time=00:00:04.64 bitrate=93104.8kbits/s speed=0.0492x    frame=  170 fps=1.8 q=28.0 size=   53504kB time=00:00:04.68 bitrate=93653.4kbits/s speed=0.0488x    frame=  172 fps=1.8 q=28.0 size=   54272kB time=00:00:04.76 bitrate=93401.1kbits/s speed=0.0493x    frame=  174 fps=1.8 q=28.0 size=   55552kB time=00:00:04.84 bitrate=94023.7kbits/s speed=0.049x    frame=  175 fps=1.8 q=28.0 size=   56064kB time=00:00:04.88 bitrate=94112.5kbits/s speed=0.049x    frame=  177 fps=1.8 q=28.0 size=   57088kB time=00:00:04.96 bitrate=94285.9kbits/s speed=0.0494x    frame=  178 fps=1.7 q=28.0 size=   57600kB time=00:00:05.00 bitrate=94370.4kbits/s speed=0.0487x    frame=  180 fps=1.7 q=28.0 size=   58624kB time=00:00:05.08 bitrate=94535.6kbits/s speed=0.0491x    frame=  182 fps=1.7 q=28.0 size=   59904kB time=00:00:05.16 bitrate=95102.0kbits/s speed=0.0487x    frame=  184 fps=1.7 q=28.0 size=   60928kB time=00:00:05.24 bitrate=95251.0kbits/s speed=0.0491x    frame=  186 fps=1.7 q=28.0 size=   62208kB time=00:00:05.32 bitrate=95789.6kbits/s speed=0.0492x    frame=  187 fps=1.7 q=28.0 size=   62720kB time=00:00:05.36 bitrate=95857.3kbits/s speed=0.0492x    frame=  188 fps=1.7 q=28.0 size=   62976kB time=00:00:05.40 bitrate=95535.6kbits/s speed=0.0491x    frame=  190 fps=1.7 q=28.0 size=   64512kB time=00:00:05.48 bitrate=96437.1kbits/s speed=0.0488x    frame=  191 fps=1.7 q=28.0 size=   65024kB time=00:00:05.52 bitrate=96498.1kbits/s speed=0.0488x    frame=  194 fps=1.7 q=28.0 size=   66816kB time=00:00:05.64 bitrate=97047.8kbits/s speed=0.0489x    frame=  195 fps=1.7 q=28.0 size=   67072kB time=00:00:05.68 bitrate=96733.6kbits/s speed=0.0489x    frame=  198 fps=1.7 q=28.0 size=   68864kB time=00:00:05.80 bitrate=97263.2kbits/s speed=0.049x    frame=  199 fps=1.7 q=28.0 size=   69376kB time=00:00:05.84 bitrate=97315.2kbits/s speed=0.049x    frame=  201 fps=1.7 q=28.0 size=   70400kB time=00:00:05.92 bitrate=97417.1kbits/s speed=0.0493x    frame=  202 fps=1.7 q=28.0 size=   71168kB time=00:00:05.96 bitrate=97818.9kbits/s speed=0.0489x    frame=  203 fps=1.7 q=28.0 size=   71424kB time=00:00:06.00 bitrate=97516.3kbits/s speed=0.0489x    frame=  205 fps=1.7 q=28.0 size=   72704kB time=00:00:06.08 bitrate=97957.9kbits/s speed=0.0493x    frame=  206 fps=1.6 q=28.0 size=   73216kB time=00:00:06.12 bitrate=98003.0kbits/s speed=0.0489x    frame=  207 fps=1.6 q=28.0 size=   73728kB time=00:00:06.16 bitrate=98047.5kbits/s speed=0.049x    frame=  210 fps=1.6 q=28.0 size=   75520kB time=00:00:06.28 bitrate=98511.5kbits/s speed=0.0489x    frame=  211 fps=1.6 q=28.0 size=   76032kB time=00:00:06.32 bitrate=98551.7kbits/s speed=0.0489x    frame=  214 fps=1.6 q=28.0 size=   77824kB time=00:00:06.44 bitrate=98994.8kbits/s speed=0.0491x    frame=  215 fps=1.6 q=28.0 size=   78080kB time=00:00:06.48 bitrate=98707.4kbits/s speed=0.049x    frame=  217 fps=1.6 q=28.0 size=   79360kB time=00:00:06.56 bitrate=99102.1kbits/s speed=0.0493x    frame=  218 fps=1.6 q=28.0 size=   80128kB time=00:00:06.60 bitrate=99454.7kbits/s speed=0.0489x    frame=  220 fps=1.6 q=28.0 size=   80896kB time=00:00:06.68 bitrate=99205.5kbits/s speed=0.0493x    frame=  222 fps=1.6 q=28.0 size=   82432kB time=00:00:06.76 bitrate=99892.8kbits/s speed=0.0488x    frame=  224 fps=1.6 q=28.0 size=   83200kB time=00:00:06.84 bitrate=99644.3kbits/s speed=0.0492x    frame=  226 fps=1.6 q=28.0 size=   84480kB time=00:00:06.92 bitrate=100007.6kbits/s speed=0.0493x    frame=  228 fps=1.6 q=28.0 size=   85504kB time=00:00:07.00 bitrate=100063.0kbits/s speed=0.0494x    frame=  230 fps=1.6 q=28.0 size=   86784kB time=00:00:07.08 bitrate=100413.4kbits/s speed=0.049x    frame=  232 fps=1.6 q=28.0 size=   87808kB time=00:00:07.16 bitrate=100463.1kbits/s speed=0.0492x    frame=  234 fps=1.6 q=28.0 size=   89088kB time=00:00:07.24 bitrate=100801.3kbits/s speed=0.0493x    frame=  235 fps=1.6 q=28.0 size=   89600kB time=00:00:07.28 bitrate=100823.6kbits/s speed=0.0493x    frame=  237 fps=1.6 q=28.0 size=   90880kB time=00:00:07.36 bitrate=101152.4kbits/s speed=0.0497x    frame=  238 fps=1.6 q=28.0 size=   91392kB time=00:00:07.40 bitrate=101172.4kbits/s speed=0.0491x    frame=  240 fps=1.6 q=28.0 size=   92160kB time=00:00:07.48 bitrate=100931.4kbits/s speed=0.0494x    frame=  242 fps=1.6 q=28.0 size=   93696kB time=00:00:07.56 bitrate=101527.8kbits/s speed=0.049x    frame=  244 fps=1.6 q=28.0 size=   94720kB time=00:00:07.64 bitrate=101562.6kbits/s speed=0.0493x    frame=  246 fps=1.6 q=28.0 size=   96000kB time=00:00:07.72 bitrate=101868.4kbits/s speed=0.0492x    frame=  248 fps=1.6 q=28.0 size=   96768kB time=00:00:07.80 bitrate=101630.2kbits/s speed=0.0495x    frame=  250 fps=1.6 q=28.0 size=   98304kB time=00:00:07.88 bitrate=102195.3kbits/s speed=0.0492x    frame=  251 fps=1.6 q=28.0 size=   98816kB time=00:00:07.92 bitrate=102208.7kbits/s speed=0.0491x    frame=  253 fps=1.6 q=28.0 size=  100096kB time=00:00:08.00 bitrate=102497.3kbits/s speed=0.0494x    frame=  255 fps=1.6 q=28.0 size=  101120kB time=00:00:08.08 bitrate=102520.7kbits/s speed=0.0496x    frame=  257 fps=1.6 q=28.0 size=  102400kB time=00:00:08.16 bitrate=102800.6kbits/s speed=0.0496x    frame=  258 fps=1.5 q=28.0 size=  102912kB time=00:00:08.20 bitrate=102810.7kbits/s speed=0.0491x    frame=  260 fps=1.5 q=28.0 size=  103936kB time=00:00:08.28 bitrate=102830.4kbits/s speed=0.0493x    frame=  262 fps=1.6 q=28.0 size=  105472kB time=00:00:08.36 bitrate=103351.5kbits/s speed=0.0496x    frame=  263 fps=1.6 q=28.0 size=  105984kB time=00:00:08.40 bitrate=103358.7kbits/s speed=0.0496x    frame=  264 fps=1.5 q=28.0 size=  106240kB time=00:00:08.44 bitrate=103117.3kbits/s speed=0.0495x    frame=  266 fps=1.5 q=28.0 size=  107776kB time=00:00:08.52 bitrate=103626.0kbits/s speed=0.0492x    frame=  267 fps=1.5 q=28.0 size=  108032kB time=00:00:08.56 bitrate=103386.7kbits/s speed=0.0493x    frame=  268 fps=1.5 q=28.0 size=  108544kB time=00:00:08.60 bitrate=103393.6kbits/s speed=0.0493x    frame=  269 fps=1.5 q=28.0 size=  109312kB time=00:00:08.64 bitrate=103643.1kbits/s speed=0.0492x    frame=  270 fps=1.5 q=25.0 size=  110080kB time=00:00:08.68 bitrate=103890.3kbits/s speed=0.0493x    frame=  272 fps=1.5 q=28.0 size=  110848kB time=00:00:08.76 bitrate=103659.7kbits/s speed=0.0494x    frame=  274 fps=1.5 q=28.0 size=  112128kB time=00:00:08.84 bitrate=103907.8kbits/s speed=0.0492x    frame=  278 fps=1.5 q=28.0 size=  115200kB time=00:00:09.00 bitrate=104856.7kbits/s speed=0.0499x    frame=  280 fps=1.5 q=28.0 size=  116480kB time=00:00:09.08 bitrate=105087.7kbits/s speed=0.0497x    frame=  281 fps=1.5 q=28.0 size=  116992kB time=00:00:09.12 bitrate=105086.7kbits/s speed=0.0494x    frame=  282 fps=1.5 q=28.0 size=  117504kB time=00:00:09.16 bitrate=105085.7kbits/s speed=0.0494x    frame=  284 fps=1.5 q=28.0 size=  118784kB time=00:00:09.24 bitrate=105310.7kbits/s speed=0.0497x    frame=  285 fps=1.5 q=28.0 size=  119552kB time=00:00:09.28 bitrate=105534.7kbits/s speed=0.0497x    frame=  286 fps=1.5 q=28.0 size=  119808kB time=00:00:09.32 bitrate=105306.8kbits/s speed=0.0497x    frame=  287 fps=1.5 q=28.0 size=  120320kB time=00:00:09.36 bitrate=105304.9kbits/s speed=0.0496x    frame=  288 fps=1.5 q=28.0 size=  121088kB time=00:00:09.40 bitrate=105526.1kbits/s speed=0.0496x    frame=  289 fps=1.5 q=28.0 size=  121600kB time=00:00:09.44 bitrate=105523.2kbits/s speed=0.0495x    frame=  290 fps=1.5 q=28.0 size=  122112kB time=00:00:09.48 bitrate=105520.4kbits/s speed=0.0493x    frame=  293 fps=1.5 q=28.0 size=  123904kB time=00:00:09.60 bitrate=105730.6kbits/s speed=0.0494x    frame=  295 fps=1.5 q=28.0 size=  124928kB time=00:00:09.68 bitrate=105723.4kbits/s speed=0.0496x    frame=  296 fps=1.5 q=28.0 size=  125696kB time=00:00:09.72 bitrate=105935.6kbits/s speed=0.0495x    frame=  297 fps=1.5 q=28.0 size=  126208kB time=00:00:09.76 bitrate=105931.1kbits/s speed=0.0492x    frame=  298 fps=1.5 q=28.0 size=  126720kB time=00:00:09.80 bitrate=105926.8kbits/s speed=0.0493x    frame=  301 fps=1.5 q=28.0 size=  128512kB time=00:00:09.92 bitrate=106125.2kbits/s speed=0.0493x    frame=  302 fps=1.5 q=28.0 size=  129024kB time=00:00:09.96 bitrate=106120.1kbits/s speed=0.0494x    frame=  304 fps=1.5 q=28.0 size=  130304kB time=00:00:10.04 bitrate=106319.0kbits/s speed=0.0496x    frame=  305 fps=1.5 q=28.0 size=  130816kB time=00:00:10.08 bitrate=106313.2kbits/s speed=0.0492x    frame=  306 fps=1.5 q=28.0 size=  131328kB time=00:00:10.12 bitrate=106307.4kbits/s speed=0.0493x    frame=  309 fps=1.5 q=28.0 size=  133120kB time=00:00:10.24 bitrate=106495.2kbits/s speed=0.0493x    frame=  310 fps=1.5 q=28.0 size=  133632kB time=00:00:10.28 bitrate=106488.8kbits/s speed=0.0493x    frame=  311 fps=1.5 q=28.0 size=  133888kB time=00:00:10.32 bitrate=106279.3kbits/s speed=0.0494x    frame=  313 fps=1.5 q=28.0 size=  135168kB time=00:00:10.40 bitrate=106470.0kbits/s speed=0.0493x    frame=  314 fps=1.5 q=28.0 size=  135680kB time=00:00:10.44 bitrate=106463.8kbits/s speed=0.0493x    frame=  317 fps=1.5 q=28.0 size=  137472kB time=00:00:10.56 bitrate=106644.2kbits/s speed=0.0493x    frame=  319 fps=1.5 q=28.0 size=  138240kB time=00:00:10.64 bitrate=106433.7kbits/s speed=0.0495x    frame=  321 fps=1.5 q=28.0 size=  139520kB time=00:00:10.72 bitrate=106617.5kbits/s speed=0.0493x    frame=  322 fps=1.5 q=28.0 size=  140032kB time=00:00:10.76 bitrate=106611.0kbits/s speed=0.0493x    frame=  325 fps=1.5 q=28.0 size=  141568kB time=00:00:10.88 bitrate=106591.6kbits/s speed=0.0494x    frame=  326 fps=1.5 q=28.0 size=  142080kB time=00:00:10.92 bitrate=106585.3kbits/s speed=0.0494x    frame=  327 fps=1.5 q=28.0 size=  142592kB time=00:00:10.96 bitrate=106579.0kbits/s speed=0.0495x    frame=  329 fps=1.5 q=28.0 size=  143872kB time=00:00:11.04 bitrate=106756.5kbits/s speed=0.0494x    frame=  331 fps=1.5 q=28.0 size=  144640kB time=00:00:11.12 bitrate=106554.2kbits/s speed=0.0496x    frame=  333 fps=1.5 q=28.0 size=  145920kB time=00:00:11.20 bitrate=106729.3kbits/s speed=0.0494x    frame=  335 fps=1.5 q=28.0 size=  146688kB time=00:00:11.28 bitrate=106530.1kbits/s speed=0.0496x    frame=  337 fps=1.5 q=28.0 size=  147968kB time=00:00:11.36 bitrate=106703.0kbits/s speed=0.0494x    frame=  339 fps=1.5 q=28.0 size=  148736kB time=00:00:11.44 bitrate=106506.8kbits/s speed=0.0496x    frame=  341 fps=1.5 q=28.0 size=  150016kB time=00:00:11.52 bitrate=106677.3kbits/s speed=0.0495x    frame=  342 fps=1.5 q=28.0 size=  150272kB time=00:00:11.56 bitrate=106489.6kbits/s speed=0.0495x    frame=  345 fps=1.5 q=28.0 size=  152064kB time=00:00:11.68 bitrate=106652.4kbits/s speed=0.0495x    frame=  347 fps=1.5 q=28.0 size=  152832kB time=00:00:11.76 bitrate=106461.9kbits/s speed=0.0497x    frame=  349 fps=1.5 q=28.0 size=  154112kB time=00:00:11.84 bitrate=106628.2kbits/s speed=0.0497x    frame=  350 fps=1.5 q=28.0 size=  154368kB time=00:00:11.88 bitrate=106445.7kbits/s speed=0.0497x    frame=  353 fps=1.5 q=28.0 size=  155904kB time=00:00:12.00 bitrate=106429.8kbits/s speed=0.0498x    frame=  354 fps=1.5 q=28.0 size=  156416kB time=00:00:12.04 bitrate=106424.6kbits/s speed=0.0497x    frame=  356 fps=1.5 q=28.0 size=  157440kB time=00:00:12.12 bitrate=106414.2kbits/s speed=0.05x    frame=  357 fps=1.5 q=28.0 size=  157952kB time=00:00:12.16 bitrate=106409.1kbits/s speed=0.0498x    frame=  358 fps=1.5 q=28.0 size=  158464kB time=00:00:12.20 bitrate=106404.0kbits/s speed=0.0499x    frame=  360 fps=1.5 q=28.0 size=  159488kB time=00:00:12.28 bitrate=106393.9kbits/s speed=0.0501x    frame=  361 fps=1.5 q=28.0 size=  160000kB time=00:00:12.32 bitrate=106389.0kbits/s speed=0.0499x    frame=  362 fps=1.5 q=28.0 size=  160512kB time=00:00:12.36 bitrate=106384.0kbits/s speed=0.0498x    frame=  364 fps=1.5 q=28.0 size=  161536kB time=00:00:12.44 bitrate=106374.2kbits/s speed=0.05x    frame=  365 fps=1.5 q=28.0 size=  162048kB time=00:00:12.48 bitrate=106369.3kbits/s speed=0.0499x    frame=  366 fps=1.5 q=28.0 size=  162304kB time=00:00:12.52 bitrate=106197.0kbits/s speed=0.05x    frame=  368 fps=1.5 q=28.0 size=  163328kB time=00:00:12.60 bitrate=106188.5kbits/s speed=0.0501x    frame=  369 fps=1.5 q=28.0 size=  163840kB time=00:00:12.64 bitrate=106184.3kbits/s speed=0.0498x    frame=  371 fps=1.5 q=28.0 size=  164608kB time=00:00:12.72 bitrate=106011.1kbits/s speed=0.0499x    frame=  373 fps=1.5 q=28.0 size=  165888kB time=00:00:12.80 bitrate=106167.7kbits/s speed=0.05x    frame=  374 fps=1.5 q=28.0 size=  166144kB time=00:00:12.84 bitrate=106000.3kbits/s speed=0.05x    frame=  375 fps=1.5 q=28.0 size=  166656kB time=00:00:12.88 bitrate=105996.7kbits/s speed=0.05x    frame=  376 fps=1.5 q=28.0 size=  167424kB time=00:00:12.92 bitrate=106155.5kbits/s speed=0.05x    frame=  377 fps=1.5 q=28.0 size=  167936kB time=00:00:12.96 bitrate=106151.5kbits/s speed=0.0499x    frame=  378 fps=1.5 q=28.0 size=  168192kB time=00:00:13.00 bitrate=105986.2kbits/s speed=0.0499x    frame=  380 fps=1.5 q=28.0 size=  169216kB time=00:00:13.08 bitrate=105979.3kbits/s speed=0.0501x    frame=  381 fps=1.5 q=28.0 size=  169728kB time=00:00:13.12 bitrate=105975.9kbits/s speed=0.05x    frame=  382 fps=1.4 q=28.0 size=  169984kB time=00:00:13.16 bitrate=105813.1kbits/s speed=0.0499x    frame=  385 fps=1.4 q=28.0 size=  171520kB time=00:00:13.28 bitrate=105804.5kbits/s speed=0.0499x    frame=  386 fps=1.4 q=28.0 size=  172032kB time=00:00:13.32 bitrate=105801.7kbits/s speed=0.0499x    frame=  389 fps=1.4 q=28.0 size=  173568kB time=00:00:13.44 bitrate=105793.2kbits/s speed=0.0499x    frame=  390 fps=1.4 q=28.0 size=  173824kB time=00:00:13.48 bitrate=105634.9kbits/s speed=0.05x    frame=  393 fps=1.4 q=28.0 size=  175360kB time=00:00:13.60 bitrate=105628.0kbits/s speed=0.05x    frame=  394 fps=1.4 q=28.0 size=  175616kB time=00:00:13.64 bitrate=105472.0kbits/s speed=0.05x    frame=  397 fps=1.4 q=28.0 size=  177152kB time=00:00:13.76 bitrate=105466.7kbits/s speed=0.05x    frame=  399 fps=1.4 q=28.0 size=  177920kB time=00:00:13.84 bitrate=105311.6kbits/s speed=0.0502x    frame=  401 fps=1.4 q=28.0 size=  178944kB time=00:00:13.92 bitrate=105309.0kbits/s speed=0.05x    frame=  402 fps=1.4 q=28.0 size=  179456kB time=00:00:13.96 bitrate=105307.7kbits/s speed=0.0501x    frame=  405 fps=1.4 q=28.0 size=  180736kB time=00:00:14.08 bitrate=105154.9kbits/s speed=0.0502x    frame=  406 fps=1.4 q=28.0 size=  181248kB time=00:00:14.12 bitrate=105154.1kbits/s speed=0.0502x    frame=  408 fps=1.4 q=28.0 size=  182016kB time=00:00:14.20 bitrate=105004.7kbits/s speed=0.0504x    frame=  409 fps=1.4 q=28.0 size=  182528kB time=00:00:14.24 bitrate=105004.3kbits/s speed=0.0502x    frame=  411 fps=1.4 q=28.0 size=  183296kB time=00:00:14.32 bitrate=104857.0kbits/s speed=0.0503x    frame=  413 fps=1.4 q=28.0 size=  184320kB time=00:00:14.40 bitrate=104857.1kbits/s speed=0.0502x    frame=  415 fps=1.4 q=28.0 size=  185088kB time=00:00:14.48 bitrate=104712.2kbits/s speed=0.0504x    frame=  417 fps=1.4 q=28.0 size=  186112kB time=00:00:14.56 bitrate=104713.0kbits/s speed=0.0504x    frame=  419 fps=1.4 q=28.0 size=  186880kB time=00:00:14.64 bitrate=104570.6kbits/s speed=0.0506x    frame=  421 fps=1.4 q=28.0 size=  187904kB time=00:00:14.72 bitrate=104572.1kbits/s speed=0.0505x    frame=  423 fps=1.4 q=28.0 size=  188416kB time=00:00:14.80 bitrate=104290.3kbits/s speed=0.0506x    frame=  425 fps=1.4 q=28.0 size=  189696kB time=00:00:14.88 bitrate=104434.3kbits/s speed=0.0506x    frame=  426 fps=1.4 q=28.0 size=  189952kB time=00:00:14.92 bitrate=104294.8kbits/s speed=0.0507x    frame=  429 fps=1.4 q=28.0 size=  191232kB time=00:00:15.04 bitrate=104159.9kbits/s speed=0.0507x    frame=  431 fps=1.4 q=28.0 size=  192000kB time=00:00:15.12 bitrate=104024.9kbits/s speed=0.0508x    frame=  433 fps=1.4 q=28.0 size=  193024kB time=00:00:15.20 bitrate=104029.3kbits/s speed=0.0507x    frame=  434 fps=1.4 q=28.0 size=  193280kB time=00:00:15.24 bitrate=103893.8kbits/s speed=0.0508x    frame=  436 fps=1.4 q=28.0 size=  194304kB time=00:00:15.32 bitrate=103898.9kbits/s speed=0.0509x    frame=  437 fps=1.4 q=28.0 size=  194816kB time=00:00:15.36 bitrate=103901.4kbits/s speed=0.0508x    frame=  439 fps=1.4 q=28.0 size=  195328kB time=00:00:15.44 bitrate=103634.7kbits/s speed=0.0509x    frame=  441 fps=1.4 q=28.0 size=  196608kB time=00:00:15.52 bitrate=103776.1kbits/s speed=0.0508x    frame=  443 fps=1.4 q=28.0 size=  197120kB time=00:00:15.60 bitrate=103512.8kbits/s speed=0.0509x    frame=  445 fps=1.4 q=28.0 size=  198144kB time=00:00:15.68 bitrate=103519.6kbits/s speed=0.0509x    frame=  446 fps=1.4 q=28.0 size=  198656kB time=00:00:15.72 bitrate=103523.0kbits/s speed=0.0509x    frame=  449 fps=1.4 q=28.0 size=  199936kB time=00:00:15.84 bitrate=103400.8kbits/s speed=0.0509x    frame=  451 fps=1.4 q=28.0 size=  200448kB time=00:00:15.92 bitrate=103144.6kbits/s speed=0.051x    frame=  453 fps=1.4 q=28.0 size=  201728kB time=00:00:16.00 bitrate=103284.3kbits/s speed=0.0509x    frame=  454 fps=1.4 q=28.0 size=  201984kB time=00:00:16.04 bitrate=103157.4kbits/s speed=0.0509x    frame=  457 fps=1.4 q=28.0 size=  203264kB time=00:00:16.16 bitrate=103040.3kbits/s speed=0.0509x    frame=  459 fps=1.4 q=28.0 size=  204032kB time=00:00:16.24 bitrate=102920.1kbits/s speed=0.051x    frame=  461 fps=1.4 q=28.0 size=  205056kB time=00:00:16.32 bitrate=102929.6kbits/s speed=0.051x    frame=  463 fps=1.4 q=28.0 size=  205568kB time=00:00:16.40 bitrate=102683.3kbits/s speed=0.0511x    frame=  465 fps=1.4 q=28.0 size=  206848kB time=00:00:16.48 bitrate=102821.1kbits/s speed=0.0509x    frame=  467 fps=1.4 q=28.0 size=  207360kB time=00:00:16.56 bitrate=102577.6kbits/s speed=0.051x    frame=  469 fps=1.4 q=28.0 size=  208640kB time=00:00:16.64 bitrate=102714.6kbits/s speed=0.0509x    frame=  471 fps=1.4 q=28.0 size=  209152kB time=00:00:16.72 bitrate=102474.0kbits/s speed=0.051x    frame=  472 fps=1.4 q=25.0 size=  209664kB time=00:00:16.76 bitrate=102479.7kbits/s speed=0.051x    frame=  473 fps=1.4 q=28.0 size=  210176kB time=00:00:16.80 bitrate=102485.4kbits/s speed=0.051x    frame=  474 fps=1.4 q=28.0 size=  210432kB time=00:00:16.84 bitrate=102366.5kbits/s speed=0.0509x    frame=  477 fps=1.4 q=28.0 size=  212480kB time=00:00:16.96 bitrate=102631.4kbits/s speed=0.0511x    frame=  480 fps=1.4 q=28.0 size=  213760kB time=00:00:17.08 bitrate=102524.3kbits/s speed=0.0511x    frame=  482 fps=1.4 q=28.0 size=  214784kB time=00:00:17.16 bitrate=102535.1kbits/s speed=0.0513x    frame=  483 fps=1.4 q=28.0 size=  215040kB time=00:00:17.20 bitrate=102418.6kbits/s speed=0.0511x    frame=  484 fps=1.4 q=28.0 size=  215552kB time=00:00:17.24 bitrate=102424.3kbits/s speed=0.0511x    frame=  487 fps=1.4 q=28.0 size=  216832kB time=00:00:17.36 bitrate=102320.3kbits/s speed=0.0512x    frame=  489 fps=1.4 q=28.0 size=  217344kB time=00:00:17.44 bitrate=102091.4kbits/s speed=0.0513x    frame=  491 fps=1.4 q=28.0 size=  218624kB time=00:00:17.52 bitrate=102223.8kbits/s speed=0.0511x    frame=  493 fps=1.4 q=28.0 size=  219136kB time=00:00:17.60 bitrate=101997.4kbits/s speed=0.0513x    frame=  495 fps=1.4 q=28.0 size=  220416kB time=00:00:17.68 bitrate=102129.0kbits/s speed=0.0512x    frame=  497 fps=1.4 q=28.0 size=  220928kB time=00:00:17.76 bitrate=101905.1kbits/s speed=0.0514x    frame=  499 fps=1.4 q=28.0 size=  222208kB time=00:00:17.84 bitrate=102035.9kbits/s speed=0.0513x    frame=  500 fps=1.4 q=28.0 size=  222464kB time=00:00:17.88 bitrate=101924.9kbits/s speed=0.0513x    frame=  500 fps=1.3 q=-1.0 Lsize=  242960kB time=00:00:19.88 bitrate=100116.8kbits/s speed=0.0525x    
video:242950kB audio:0kB subtitle:0kB other streams:0kB global headers:0kB muxing overhead: 0.004024%
[libx264 @ 0x5583e97cb9e0] frame I:4     Avg QP:26.32  size:1053904
[libx264 @ 0x5583e97cb9e0] frame P:126   Avg QP:28.63  size:697791
[libx264 @ 0x5583e97cb9e0] frame B:370   Avg QP:29.56  size:423360
[libx264 @ 0x5583e97cb9e0] consecutive B-frames:  1.2%  0.4%  0.0% 98.4%
[libx264 @ 0x5583e97cb9e0] mb I  I16..4:  9.3% 51.1% 39.7%
[libx264 @ 0x5583e97cb9e0] mb P  I16..4:  2.9% 25.6% 14.6%  P16..4: 21.5% 26.3%  9.1%  0.0%  0.0%    skip: 0.0%
[libx264 @ 0x5583e97cb9e0] mb B  I16..4:  0.9%  2.5%  2.1%  B16..8: 45.0% 15.6%  6.3%  direct:23.3%  skip: 4.4%  L0:39.5% L1:38.4% BI:22.1%
[libx264 @ 0x5583e97cb9e0] 8x8 transform intra:55.3% inter:35.1%
[libx264 @ 0x5583e97cb9e0] coded y,uvDC,uvAC intra: 96.3% 95.1% 71.7% inter: 69.4% 60.0% 22.2%
[libx264 @ 0x5583e97cb9e0] i16 v,h,dc,p:  1% 42% 26% 31%
[libx264 @ 0x5583e97cb9e0] i8 v,h,dc,ddl,ddr,vr,hd,vl,hu:  3% 42%  8%  4%  6%  3% 16%  3% 16%
[libx264 @ 0x5583e97cb9e0] i4 v,h,dc,ddl,ddr,vr,hd,vl,hu:  4% 35% 11%  6%  7%  4% 15%  4% 15%
[libx264 @ 0x5583e97cb9e0] i8c dc,h,v,p: 42% 43%  5%  9%
[libx264 @ 0x5583e97cb9e0] Weighted P-Frames: Y:3.2% UV:1.6%
[libx264 @ 0x5583e97cb9e0] ref P L0: 46.0% 17.9% 23.7% 12.1%  0.3%
[libx264 @ 0x5583e97cb9e0] ref B L0: 93.9%  4.5%  1.7%
[libx264 @ 0x5583e97cb9e0] ref B L1: 99.0%  1.0%
[libx264 @ 0x5583e97cb9e0] kb/s:99512.25
	Command being timed: "/usr/bin/ffmpeg -i ../.././Samples/8_AVC_8bits_3840x2160_25_000fps.mkv -c:v libx264 -f mov /home/aleksandr/Pract/Samples/8_AVC_8bits_3840x2160_25_000fps.mkv_tc/output_std3.mov"
	User time (seconds): 1025.80
	System time (seconds): 6.42
	Percent of CPU this job got: 272%
	Elapsed (wall clock) time (h:mm:ss or m:ss): 6:19.24
	Average shared text size (kbytes): 0
	Average unshared data size (kbytes): 0
	Average stack size (kbytes): 0
	Average total size (kbytes): 0
	Maximum resident set size (kbytes): 2140680
	Average resident set size (kbytes): 0
	Major (requiring I/O) page faults: 0
	Minor (reclaiming a frame) page faults: 155937
	Voluntary context switches: 14962
	Involuntary context switches: 602422
	Swaps: 0
	File system inputs: 0
	File system outputs: 486176
	Socket messages sent: 0
	Socket messages received: 0
	Signals delivered: 0
	Page size (bytes): 4096
	Exit status: 0
